<svg width="54" height="34" viewBox="0 0 54 34" fill="none" xmlns="http://www.w3.org/2000/svg">
<rect width="54" height="34" fill="white"/>
<path d="M31 24H23V25.5C23 25.8978 22.842 26.2794 22.5607 26.5607C22.2794 26.842 21.8978 27 21.5 27H20.5C20.1022 27 19.7206 26.842 19.4393 26.5607C19.158 26.2794 19 25.8978 19 25.5V23.83C18.4149 23.623 17.9084 23.2397 17.5502 22.7329C17.1921 22.226 16.9998 21.6206 17 21V18C17 17.38 17.188 16.804 17.51 16.326L18.596 9.526C18.7088 8.82119 19.0692 8.17967 19.6124 7.71669C20.1557 7.25371 20.8462 6.9996 21.56 7H32.44C33.1532 7.00059 33.8429 7.25527 34.3854 7.71837C34.9278 8.18147 35.2875 8.82268 35.4 9.527L36.483 16.317C36.809 16.797 36.999 17.377 36.999 18V21C36.9992 21.6206 36.8069 22.226 36.4488 22.7329C36.0906 23.2397 35.5841 23.623 34.999 23.83V25.5C34.999 25.8978 34.841 26.2794 34.5597 26.5607C34.2784 26.842 33.8968 27 33.499 27H32.499C32.1012 27 31.7196 26.842 31.4383 26.5607C31.157 26.2794 30.999 25.8978 30.999 25.5L31 24ZM34.25 15.01L33.426 9.842C33.3885 9.6074 33.2686 9.39383 33.088 9.23955C32.9073 9.08526 32.6776 9.00034 32.44 9H21.559C21.3211 8.99987 21.0909 9.08457 20.9098 9.2389C20.7287 9.39322 20.6086 9.60706 20.571 9.842L19.746 15.011C19.8305 15.0038 19.9152 15.0001 20 15H34C34.084 15 34.168 15.003 34.25 15.01ZM32.5 21C32.697 21 32.892 20.9612 33.074 20.8858C33.256 20.8104 33.4214 20.6999 33.5607 20.5607C33.6999 20.4214 33.8104 20.256 33.8858 20.074C33.9612 19.892 34 19.697 34 19.5C34 19.303 33.9612 19.108 33.8858 18.926C33.8104 18.744 33.6999 18.5786 33.5607 18.4393C33.4214 18.3001 33.256 18.1896 33.074 18.1142C32.892 18.0388 32.697 18 32.5 18C32.1022 18 31.7206 18.158 31.4393 18.4393C31.158 18.7206 31 19.1022 31 19.5C31 19.8978 31.158 20.2794 31.4393 20.5607C31.7206 20.842 32.1022 21 32.5 21ZM21.5 21C21.697 21 21.892 20.9612 22.074 20.8858C22.256 20.8104 22.4214 20.6999 22.5607 20.5607C22.6999 20.4214 22.8104 20.256 22.8858 20.074C22.9612 19.892 23 19.697 23 19.5C23 19.303 22.9612 19.108 22.8858 18.926C22.8104 18.744 22.6999 18.5786 22.5607 18.4393C22.4214 18.3001 22.256 18.1896 22.074 18.1142C21.892 18.0388 21.697 18 21.5 18C21.1022 18 20.7206 18.158 20.4393 18.4393C20.158 18.7206 20 19.1022 20 19.5C20 19.8978 20.158 20.2794 20.4393 20.5607C20.7206 20.842 21.1022 21 21.5 21Z" fill="black"/>
</svg>
