<svg width="54" height="34" viewBox="0 0 54 34" fill="none" xmlns="http://www.w3.org/2000/svg">
<rect width="54" height="34" fill="white"/>
<path fill-rule="evenodd" clip-rule="evenodd" d="M28.953 8.48231C28.953 9.5675 28.088 10.4479 27.0219 10.4479C25.9557 10.4479 25.0907 9.5675 25.0907 8.48231C25.0907 7.39713 25.9557 6.51669 27.0219 6.51669C28.088 6.51669 28.953 7.39713 28.953 8.48231ZM20.5854 26.1794C20.5854 26.0733 20.5984 25.9653 20.6254 25.8576L21.9768 20.1941L24.099 22.3543L23.0832 26.4903C22.9733 27.084 22.4503 27.4833 21.8722 27.4833C21.7716 27.4833 21.667 27.4751 21.5607 27.4444C20.9777 27.297 20.5854 26.7646 20.5854 26.1794ZM29.5585 14.3792H30.9566V14.3821H32.0798C32.708 14.3505 33.2385 14.7844 33.3777 15.3702C33.4019 15.4721 33.4188 15.5801 33.4133 15.6952C33.4042 16.3215 32.975 16.8222 32.382 16.9631C32.2744 16.9886 32.1618 17.0015 32.0462 17.0001L30.9554 17V17H28.953C28.611 17 28.2852 16.8608 27.9693 16.6161L27.0693 15.6996L26.3009 18.9552C26.2972 18.9704 26.2907 18.9827 26.2835 18.9965C26.2819 18.9993 26.2804 19.0022 26.2789 19.0053C26.2778 19.0073 26.2768 19.0094 26.2757 19.0115L28.1614 20.9312C28.6492 21.4276 28.9158 22.0832 28.9158 22.7843V26.1729C28.9158 26.8944 28.3014 27.4833 27.6283 27.4833C26.9553 27.4833 26.3771 26.8944 26.3771 26.1729V22.7847L22.8922 19.2371C22.6473 18.9877 22.5159 18.6554 22.5159 18.3145C22.5159 18.208 22.532 18.0975 22.5561 17.9951L23.6384 13.5806C23.9039 12.5077 24.8453 11.7583 25.9316 11.7583C26.5632 11.7583 27.1587 12.0081 27.6777 12.4647L29.5585 14.3792Z" fill="black"/>
</svg>
