<svg width="59" height="49" viewBox="0 0 59 49" fill="none" xmlns="http://www.w3.org/2000/svg">
<rect width="59" height="49" fill="white"/>
<path d="M51.0607 16.0607C51.6464 15.4749 51.6464 14.5251 51.0607 13.9393L41.5147 4.3934C40.9289 3.80761 39.9792 3.80761 39.3934 4.3934C38.8076 4.97918 38.8076 5.92893 39.3934 6.51472L47.8787 15L39.3934 23.4853C38.8076 24.0711 38.8076 25.0208 39.3934 25.6066C39.9792 26.1924 40.9289 26.1924 41.5147 25.6066L51.0607 16.0607ZM7 16.5H50V13.5H7V16.5Z" fill="black"/>
<path d="M5.91499 31.9674C5.34305 32.5683 5.36518 33.5178 5.96441 34.0881L15.7295 43.3818C16.3287 43.9521 17.2781 43.9273 17.8501 43.3263C18.422 42.7254 18.3999 41.7759 17.8007 41.2056L9.1206 32.9445L17.4053 24.2396C17.9772 23.6387 17.9551 22.6892 17.3559 22.1189C16.7566 21.5486 15.8072 21.5734 15.2353 22.1744L5.91499 31.9674ZM49.9651 30.3754L6.96506 31.5004L7.03495 34.4996L50.0349 33.3746L49.9651 30.3754Z" fill="black"/>
</svg>
